<svg xmlns:dc="http://purl.org/dc/elements/1.1/" xmlns:cc="http://creativecommons.org/ns#" xmlns:rdf="http://www.w3.org/1999/02/22-rdf-syntax-ns#" xmlns:svg="http://www.w3.org/2000/svg" xmlns="http://www.w3.org/2000/svg" xmlns:sodipodi="http://sodipodi.sourceforge.net/DTD/sodipodi-0.dtd" xmlns:inkscape="http://www.inkscape.org/namespaces/inkscape" width="48pt" height="48pt" viewBox="0 0 16.933334 16.933333" id="svg979" inkscape:version="0.92.4 (5da689c313, 2019-01-14)" sodipodi:docname="19 - Blueray Disc.svg" inkscape:export-filename="E:\TR Design Studio Creative\Project Design\TR Creative Design\Icon Design\Project Hiring\Icon Icons\004 - Cinema\Send\03 - Flat\18 - Camcorder.png" inkscape:export-xdpi="768" inkscape:export-ydpi="768"><defs id="defs973"></defs><metadata></metadata><g inkscape:label="Layer 1" inkscape:groupmode="layer" id="layer1" transform="translate(0,-280.06668)"><g id="g1585" transform="matrix(1.231778,0,0,1.231778,-26.470024,-69.483563)" style="stroke-width:0.81183457"><g id="g1598" transform="translate(22.013331)" style="stroke-width:0.81183457"><path id="path1552" style="color:#000000;font-style:normal;font-variant:normal;font-weight:normal;font-stretch:normal;font-size:medium;line-height:normal;font-family:sans-serif;font-variant-ligatures:normal;font-variant-position:normal;font-variant-caps:normal;font-variant-numeric:normal;font-variant-alternates:normal;font-feature-settings:normal;text-indent:0;text-align:start;text-decoration:none;text-decoration-line:none;text-decoration-style:solid;text-decoration-color:#000000;letter-spacing:normal;word-spacing:normal;text-transform:none;writing-mode:lr-tb;direction:ltr;text-orientation:mixed;dominant-baseline:auto;baseline-shift:baseline;text-anchor:start;white-space:normal;shape-padding:0;clip-rule:nonzero;display:inline;overflow:visible;visibility:visible;isolation:auto;mix-blend-mode:normal;color-interpolation:sRGB;color-interpolation-filters:linearRGB;solid-color:#000000;solid-opacity:1;vector-effect:none;fill:#5db2f6;fill-opacity:1;fill-rule:nonzero;stroke:none;stroke-width:1.62366915;stroke-linecap:round;stroke-linejoin:round;stroke-miterlimit:4;stroke-dasharray:none;stroke-dashoffset:0;stroke-opacity:1;color-rendering:auto;image-rendering:auto;shape-rendering:auto;text-rendering:auto;enable-background:accumulate" d="M 23.998047,1 C 11.307362,1 0.99612274,11.311282 0.99609375,24.001953 0.99607912,36.692662 11.307331,47.003906 23.998047,47.003906 36.688761,47.003906 47.000015,36.692662 47,24.001953 46.999974,11.311282 36.688731,1 23.998047,1 Z m 0,19.177734 c 2.098153,0 3.824189,1.72609 3.824219,3.824219 2.6e-5,2.098167 -1.726031,3.816406 -3.824219,3.816406 -2.098188,0 -3.816432,-1.718239 -3.816406,-3.816406 2.9e-5,-2.098129 1.718253,-3.824219 3.816406,-3.824219 z" transform="matrix(0.26458333,0,0,0.26458333,0,284.3)" inkscape:connector-curvature="0"></path><path style="color:#000000;font-style:normal;font-variant:normal;font-weight:normal;font-stretch:normal;font-size:medium;line-height:normal;font-family:sans-serif;font-variant-ligatures:normal;font-variant-position:normal;font-variant-caps:normal;font-variant-numeric:normal;font-variant-alternates:normal;font-feature-settings:normal;text-indent:0;text-align:start;text-decoration:none;text-decoration-line:none;text-decoration-style:solid;text-decoration-color:#000000;letter-spacing:normal;word-spacing:normal;text-transform:none;writing-mode:lr-tb;direction:ltr;text-orientation:mixed;dominant-baseline:auto;baseline-shift:baseline;text-anchor:start;white-space:normal;shape-padding:0;clip-rule:nonzero;display:inline;overflow:visible;visibility:visible;opacity:1;isolation:auto;mix-blend-mode:normal;color-interpolation:sRGB;color-interpolation-filters:linearRGB;solid-color:#000000;solid-opacity:1;vector-effect:none;fill:#e1f5fe;fill-opacity:1;fill-rule:nonzero;stroke:none;stroke-width:0.42959607;stroke-linecap:round;stroke-linejoin:round;stroke-miterlimit:4;stroke-dasharray:none;stroke-dashoffset:0;stroke-opacity:1;color-rendering:auto;image-rendering:auto;shape-rendering:auto;text-rendering:auto;enable-background:accumulate" d="m 7.9863281,287.33789 a 0.2645835,0.2645835 0 0 0 -0.234375,0.13867 0.2645835,0.2645835 0 0 0 0.1074219,0.35938 c 0.5490055,0.2952 1.0018019,0.74703 1.2988281,1.29492 a 0.2645835,0.2645835 0 0 0 0.359375,0.10547 A 0.2645835,0.2645835 0 0 0 9.625,288.87891 C 9.2786278,288.23999 8.7515613,287.7134 8.1113281,287.36914 a 0.2645835,0.2645835 0 0 0 -0.125,-0.0312 z" id="path1530" inkscape:connector-curvature="0"></path><path style="color:#000000;font-style:normal;font-variant:normal;font-weight:normal;font-stretch:normal;font-size:medium;line-height:normal;font-family:sans-serif;font-variant-ligatures:normal;font-variant-position:normal;font-variant-caps:normal;font-variant-numeric:normal;font-variant-alternates:normal;font-feature-settings:normal;text-indent:0;text-align:start;text-decoration:none;text-decoration-line:none;text-decoration-style:solid;text-decoration-color:#000000;letter-spacing:normal;word-spacing:normal;text-transform:none;writing-mode:lr-tb;direction:ltr;text-orientation:mixed;dominant-baseline:auto;baseline-shift:baseline;text-anchor:start;white-space:normal;shape-padding:0;clip-rule:nonzero;display:inline;overflow:visible;visibility:visible;opacity:1;isolation:auto;mix-blend-mode:normal;color-interpolation:sRGB;color-interpolation-filters:linearRGB;solid-color:#000000;solid-opacity:1;vector-effect:none;fill:#e1f5fe;fill-opacity:1;fill-rule:nonzero;stroke:none;stroke-width:0.42959607;stroke-linecap:round;stroke-linejoin:round;stroke-miterlimit:4;stroke-dasharray:none;stroke-dashoffset:0;stroke-opacity:1;color-rendering:auto;image-rendering:auto;shape-rendering:auto;text-rendering:auto;enable-background:accumulate" d="m 9.3886719,292.04102 a 0.2645835,0.2645835 0 0 0 -0.234375,0.13867 c -0.2935945,0.53711 -0.7382862,0.97985 -1.2753907,1.27343 a 0.2645835,0.2645835 0 0 0 -0.1054687,0.35938 0.2645835,0.2645835 0 0 0 0.359375,0.10547 c 0.6263239,-0.34236 1.1439652,-0.85805 1.4863281,-1.48438 a 0.2645835,0.2645835 0 0 0 -0.1054687,-0.35937 0.2645835,0.2645835 0 0 0 -0.125,-0.0332 z" id="path1538" inkscape:connector-curvature="0"></path><path style="color:#000000;font-style:normal;font-variant:normal;font-weight:normal;font-stretch:normal;font-size:medium;line-height:normal;font-family:sans-serif;font-variant-ligatures:normal;font-variant-position:normal;font-variant-caps:normal;font-variant-numeric:normal;font-variant-alternates:normal;font-feature-settings:normal;text-indent:0;text-align:start;text-decoration:none;text-decoration-line:none;text-decoration-style:solid;text-decoration-color:#000000;letter-spacing:normal;word-spacing:normal;text-transform:none;writing-mode:lr-tb;direction:ltr;text-orientation:mixed;dominant-baseline:auto;baseline-shift:baseline;text-anchor:start;white-space:normal;shape-padding:0;clip-rule:nonzero;display:inline;overflow:visible;visibility:visible;opacity:1;isolation:auto;mix-blend-mode:normal;color-interpolation:sRGB;color-interpolation-filters:linearRGB;solid-color:#000000;solid-opacity:1;vector-effect:none;fill:#e1f5fe;fill-opacity:1;fill-rule:nonzero;stroke:none;stroke-width:0.42959607;stroke-linecap:round;stroke-linejoin:round;stroke-miterlimit:4;stroke-dasharray:none;stroke-dashoffset:0;stroke-opacity:1;color-rendering:auto;image-rendering:auto;shape-rendering:auto;text-rendering:auto;enable-background:accumulate" d="m 3.2851562,292.02148 a 0.2645835,0.2645835 0 0 0 -0.1074218,0.0312 0.2645835,0.2645835 0 0 0 -0.1074219,0.35743 c 0.3384942,0.62952 0.8521057,1.14957 1.4765625,1.49609 a 0.2645835,0.2645835 0 0 0 0.359375,-0.10156 0.2645835,0.2645835 0 0 0 -0.1035156,-0.36133 c -0.5355371,-0.29718 -0.9773165,-0.74338 -1.2675782,-1.2832 a 0.2645835,0.2645835 0 0 0 -0.25,-0.13868 z" id="path1542" inkscape:connector-curvature="0"></path><path style="color:#000000;font-style:normal;font-variant:normal;font-weight:normal;font-stretch:normal;font-size:medium;line-height:normal;font-family:sans-serif;font-variant-ligatures:normal;font-variant-position:normal;font-variant-caps:normal;font-variant-numeric:normal;font-variant-alternates:normal;font-feature-settings:normal;text-indent:0;text-align:start;text-decoration:none;text-decoration-line:none;text-decoration-style:solid;text-decoration-color:#000000;letter-spacing:normal;word-spacing:normal;text-transform:none;writing-mode:lr-tb;direction:ltr;text-orientation:mixed;dominant-baseline:auto;baseline-shift:baseline;text-anchor:start;white-space:normal;shape-padding:0;clip-rule:nonzero;display:inline;overflow:visible;visibility:visible;opacity:1;isolation:auto;mix-blend-mode:normal;color-interpolation:sRGB;color-interpolation-filters:linearRGB;solid-color:#000000;solid-opacity:1;vector-effect:none;fill:#e1f5fe;fill-opacity:1;fill-rule:nonzero;stroke:none;stroke-width:0.42959607;stroke-linecap:round;stroke-linejoin:round;stroke-miterlimit:4;stroke-dasharray:none;stroke-dashoffset:0;stroke-opacity:1;color-rendering:auto;image-rendering:auto;shape-rendering:auto;text-rendering:auto;enable-background:accumulate" d="m 4.6757812,287.34961 a 0.2645835,0.2645835 0 0 0 -0.1074218,0.0312 C 3.94118,287.72322 3.42474,288.24022 3.0820312,288.86719 a 0.2645835,0.2645835 0 0 0 0.1054688,0.35937 0.2645835,0.2645835 0 0 0 0.359375,-0.10547 c 0.2938912,-0.53765 0.7375484,-0.98179 1.2753906,-1.27539 a 0.2645835,0.2645835 0 0 0 0.1054688,-0.35937 0.2645835,0.2645835 0 0 0 -0.2519532,-0.13672 z" id="path1526" inkscape:connector-curvature="0"></path><path style="color:#000000;font-style:normal;font-variant:normal;font-weight:normal;font-stretch:normal;font-size:medium;line-height:normal;font-family:sans-serif;font-variant-ligatures:normal;font-variant-position:normal;font-variant-caps:normal;font-variant-numeric:normal;font-variant-alternates:normal;font-feature-settings:normal;text-indent:0;text-align:start;text-decoration:none;text-decoration-line:none;text-decoration-style:solid;text-decoration-color:#000000;letter-spacing:normal;word-spacing:normal;text-transform:none;writing-mode:lr-tb;direction:ltr;text-orientation:mixed;dominant-baseline:auto;baseline-shift:baseline;text-anchor:start;white-space:normal;shape-padding:0;clip-rule:nonzero;display:inline;overflow:visible;visibility:visible;opacity:1;isolation:auto;mix-blend-mode:normal;color-interpolation:sRGB;color-interpolation-filters:linearRGB;solid-color:#000000;solid-opacity:1;vector-effect:none;fill:#e1f5fe;fill-opacity:1;fill-rule:nonzero;stroke:none;stroke-width:0.42959607;stroke-linecap:round;stroke-linejoin:round;stroke-miterlimit:4;stroke-dasharray:none;stroke-dashoffset:0;stroke-opacity:1;color-rendering:auto;image-rendering:auto;shape-rendering:auto;text-rendering:auto;enable-background:accumulate" d="m 8.5585938,286.3457 a 0.2645835,0.2645835 0 0 0 -0.234375,0.13672 0.2645835,0.2645835 0 0 0 0.1054687,0.35938 c 0.62958,0.3445 1.1637507,0.8407 1.5546875,1.43945 a 0.2645835,0.2645835 0 0 0 0.367187,0.0781 0.2645835,0.2645835 0 0 0 0.07617,-0.36719 C 9.9891673,287.32046 9.39015,286.7655 8.6835918,286.37888 a 0.2645835,0.2645835 0 0 0 -0.125,-0.0332 z" id="path1534" inkscape:connector-curvature="0"></path><path style="color:#000000;font-style:normal;font-variant:normal;font-weight:normal;font-stretch:normal;font-size:medium;line-height:normal;font-family:sans-serif;font-variant-ligatures:normal;font-variant-position:normal;font-variant-caps:normal;font-variant-numeric:normal;font-variant-alternates:normal;font-feature-settings:normal;text-indent:0;text-align:start;text-decoration:none;text-decoration-line:none;text-decoration-style:solid;text-decoration-color:#000000;letter-spacing:normal;word-spacing:normal;text-transform:none;writing-mode:lr-tb;direction:ltr;text-orientation:mixed;dominant-baseline:auto;baseline-shift:baseline;text-anchor:start;white-space:normal;shape-padding:0;clip-rule:nonzero;display:inline;overflow:visible;visibility:visible;opacity:1;isolation:auto;mix-blend-mode:normal;color-interpolation:sRGB;color-interpolation-filters:linearRGB;solid-color:#000000;solid-opacity:1;vector-effect:none;fill:#e1f5fe;fill-opacity:1;fill-rule:nonzero;stroke:none;stroke-width:0.42959607;stroke-linecap:round;stroke-linejoin:round;stroke-miterlimit:4;stroke-dasharray:none;stroke-dashoffset:0;stroke-opacity:1;color-rendering:auto;image-rendering:auto;shape-rendering:auto;text-rendering:auto;enable-background:accumulate" d="m 2.4863281,292.88086 a 0.2645835,0.2645835 0 0 0 -0.1464843,0.043 0.2645835,0.2645835 0 0 0 -0.080078,0.36523 c 0.4350228,0.6729 1.0310228,1.23144 1.734375,1.6211 A 0.2645835,0.2645835 0 0 0 4.355469,294.80667 0.2645835,0.2645835 0 0 0 4.2519533,294.4473 c -0.6267443,-0.34722 -1.159105,-0.84551 -1.546875,-1.44532 a 0.2645835,0.2645835 0 0 0 -0.21875,-0.12109 z" id="path1546" inkscape:connector-curvature="0"></path><path id="path1514" style="color:#000000;font-style:normal;font-variant:normal;font-weight:normal;font-stretch:normal;font-size:medium;line-height:normal;font-family:sans-serif;font-variant-ligatures:normal;font-variant-position:normal;font-variant-caps:normal;font-variant-numeric:normal;font-variant-alternates:normal;font-feature-settings:normal;text-indent:0;text-align:start;text-decoration:none;text-decoration-line:none;text-decoration-style:solid;text-decoration-color:#000000;letter-spacing:normal;word-spacing:normal;text-transform:none;writing-mode:lr-tb;direction:ltr;text-orientation:mixed;dominant-baseline:auto;baseline-shift:baseline;text-anchor:start;white-space:normal;shape-padding:0;clip-rule:nonzero;display:inline;overflow:visible;visibility:visible;isolation:auto;mix-blend-mode:normal;color-interpolation:sRGB;color-interpolation-filters:linearRGB;solid-color:#000000;solid-opacity:1;vector-effect:none;fill:#3e3e3e;fill-opacity:1;fill-rule:nonzero;stroke:none;stroke-width:1.62366915;stroke-linecap:round;stroke-linejoin:round;stroke-miterlimit:4;stroke-dasharray:none;stroke-dashoffset:0;stroke-opacity:1;color-rendering:auto;image-rendering:auto;shape-rendering:auto;text-rendering:auto;enable-background:accumulate" d="m 23.998047,15.099609 c -4.902059,0 -8.894508,4.000297 -8.894531,8.902344 -2.4e-5,4.902085 3.992441,8.894531 8.894531,8.894531 4.90209,0 8.902367,-3.992446 8.902344,-8.894531 -2.4e-5,-4.902047 -4.000286,-8.902344 -8.902344,-8.902344 z m 0,5.078125 c 2.098153,0 3.824189,1.72609 3.824219,3.824219 2.6e-5,2.098167 -1.726031,3.816406 -3.824219,3.816406 -2.098188,0 -3.816432,-1.718239 -3.816406,-3.816406 2.9e-5,-2.098129 1.718253,-3.824219 3.816406,-3.824219 z" transform="matrix(0.26458333,0,0,0.26458333,0,284.3)" inkscape:connector-curvature="0"></path><path id="path1562" style="color:#000000;font-style:normal;font-variant:normal;font-weight:normal;font-stretch:normal;font-size:medium;line-height:normal;font-family:sans-serif;font-variant-ligatures:normal;font-variant-position:normal;font-variant-caps:normal;font-variant-numeric:normal;font-variant-alternates:normal;font-feature-settings:normal;text-indent:0;text-align:start;text-decoration:none;text-decoration-line:none;text-decoration-style:solid;text-decoration-color:#000000;letter-spacing:normal;word-spacing:normal;text-transform:none;writing-mode:lr-tb;direction:ltr;text-orientation:mixed;dominant-baseline:auto;baseline-shift:baseline;text-anchor:start;white-space:normal;shape-padding:0;clip-rule:nonzero;display:inline;overflow:visible;visibility:visible;isolation:auto;mix-blend-mode:normal;color-interpolation:sRGB;color-interpolation-filters:linearRGB;solid-color:#000000;solid-opacity:1;vector-effect:none;fill:#0c68e3;fill-opacity:1;fill-rule:nonzero;stroke:none;stroke-width:0.42959607;stroke-linecap:round;stroke-linejoin:round;stroke-miterlimit:4;stroke-dasharray:none;stroke-dashoffset:0;stroke-opacity:1;color-rendering:auto;image-rendering:auto;shape-rendering:auto;text-rendering:auto;enable-background:accumulate" d="m 6.349483,284.56458 c -1.8132919,0 -3.441773,0.79649 -4.5573444,2.05724 1.0737847,-0.94997 2.4839139,-1.52807 4.0281778,-1.52807 3.3577432,0 6.0859256,2.72819 6.0859316,6.08593 2e-6,1.54427 -0.578102,2.9544 -1.528072,4.02818 1.260755,-1.11557 2.057241,-2.74405 2.057239,-4.55734 -7e-6,-3.35774 -2.7281887,-6.08594 -6.085932,-6.08594 z" inkscape:connector-curvature="0"></path></g></g></g></svg>